<svg xmlns="http://www.w3.org/2000/svg" version="1.2" width="140" height="110" viewBox="0 0 140 110"><switch transform="scale(.33333 .33846)"><g><linearGradient id="a" gradientUnits="userSpaceOnUse" x1="210.75" x2="210.75" y2="827.286"><stop offset="0" stop-color="#ffd445"/><stop offset=".153" stop-color="#ff8f00"/></linearGradient><path d="M204.515 24.667V10c0-5.5-4.5-10-10-10H44.849c-5.5 0-10 4.5-10 10v14.667H19.022c-3.483 0-9.411 4.5-9.506 9.999l.671 280.329c-.095 5.498 4.328 10.006 9.828 10.01h382.092c5.5.006 9.943-4.479 9.875-9.977L410.48 34.666c-.068-5.5-4.623-9.999-10.123-9.999H204.515z" fill="url(#a)"/><linearGradient id="b" gradientUnits="userSpaceOnUse" x1="209.999" y1="320.691" x2="209.999" y2="36.765"><stop offset="0" stop-color="#e6e6e6"/><stop offset=".633" stop-color="#e8e8e8"/><stop offset=".949" stop-color="#f0f0f0"/><stop offset="1" stop-color="#f2f2f2"/></linearGradient><path d="M390.244 320.691H29.753l-1-283.927h362.491z" fill="url(#b)"/><linearGradient id="c" gradientUnits="userSpaceOnUse" x1="209.999" y1="320.691" x2="209.999" y2="49.765"><stop offset="0" stop-color="#ccc"/><stop offset=".427" stop-color="#cecece"/><stop offset=".64" stop-color="#d6d6d6"/><stop offset=".806" stop-color="#e3e3e3"/><stop offset=".947" stop-color="#f6f6f6"/><stop offset="1" stop-color="#fff"/></linearGradient><path d="M390.244 320.691H29.753l-7-270.927h374.491z" fill="url(#c)"/><linearGradient id="d" gradientUnits="userSpaceOnUse" x1="209.998" y1="63.999" x2="209.998" y2="325.004"><stop offset="0" stop-color="#ffde4f"/><stop offset=".595" stop-color="#ffca3b"/><stop offset=".957" stop-color="#ffd041"/><stop offset="1" stop-color="#ff8f00"/></linearGradient><path d="M411.508 315.027c-.096 5.5-4.672 9.99-10.172 9.977H19.243c-5.5-.014-10.662-5.178-10.757-10.676L0 73.998A9.822 9.822 0 0 1 9.827 64H410.17c5.5 0 9.922 4.5 9.826 9.999l-8.488 241.028z" fill="url(#d)"/></g></switch></svg>